<svg width="35" height="35" fill="none" xmlns="http://www.w3.org/2000/svg"><path d="M17.5 4.375c7.249 0 13.125 5.876 13.125 13.125S24.749 30.625 17.5 30.625 4.375 24.749 4.375 17.5 10.251 4.375 17.5 4.375zm6.474 7.981a1.001 1.001 0 00-1.41.128l-5.89 7.069c-.346.415-.54.645-.697.787l-.005.004-.006-.003c-.168-.127-.383-.34-.766-.722l-2.827-2.826a1 1 0 00-1.414 1.414l2.826 2.826c.341.341.67.673.975.903.286.217.65.422 1.104.454l.2.002.2-.02c.45-.073.794-.311 1.06-.553.281-.256.58-.615.888-.986l5.89-7.067a1.001 1.001 0 00-.128-1.41z" fill="#72C073"/></svg>