<svg width="40" height="40" fill="none" xmlns="http://www.w3.org/2000/svg"><path d="M3.333 12.333c0-1.885 0-2.828.586-3.414.586-.586 1.529-.586 3.414-.586h25.334c1.885 0 2.828 0 3.414.586.586.586.586 1.529.586 3.414v3.334c0 .471 0 .707-.147.853-.146.147-.382.147-.853.147H4.333c-.47 0-.707 0-.853-.147-.147-.146-.147-.382-.147-.853v-3.334z" fill="#72C073"/><path fill-rule="evenodd" clip-rule="evenodd" d="M35.667 20c.471 0 .707 0 .853.146.147.147.147.383.147.854v11.667c0 1.885 0 2.828-.586 3.414-.586.586-1.529.586-3.414.586H7.333c-1.885 0-2.828 0-3.414-.586-.586-.586-.586-1.529-.586-3.414V21c0-.471 0-.707.146-.854.147-.146.383-.146.854-.146h31.334zM20 22.333a1 1 0 00-1 1v4h-4a1 1 0 000 2h4v4a1 1 0 102 0v-4h4a1 1 0 100-2h-4v-4a1 1 0 00-1-1z" fill="#72C073"/><path d="M11.666 5v5M28.334 5v5" stroke="#72C073" stroke-width="2" stroke-linecap="round"/></svg>