<svg width="40" height="40" fill="none" xmlns="http://www.w3.org/2000/svg"><path fill-rule="evenodd" clip-rule="evenodd" d="M20.667 13c0 .443-.002.876.046 1.23.051.383.177.821.54 1.184.363.363.8.49 1.183.541.355.048.788.045 1.231.045h9.666v10.667c0 4.714 0 7.07-1.464 8.535-1.464 1.465-3.822 1.465-8.536 1.465h-6.666c-4.714 0-7.072 0-8.536-1.465-1.464-1.464-1.464-3.821-1.464-8.535V13.333c0-4.714 0-7.07 1.464-8.535 1.464-1.465 3.822-1.465 8.536-1.465h4V13zM15 27.333a1 1 0 000 2h6.667a1 1 0 000-2H15zm0-6.666a1 1 0 100 2h10a1 1 0 000-2H15zm7.667-17.333c1.084.003 1.683.027 2.227.253.613.254 1.095.736 2.058 1.7l4.429 4.427c.963.963 1.445 1.445 1.7 2.057.225.545.247 1.145.25 2.229h-9.664c-.5 0-.774-.002-.964-.027l-.008-.002v-.007c-.026-.19-.028-.465-.028-.964V3.334z" fill="#72C073"/></svg>