<svg width="40" height="40" fill="none" xmlns="http://www.w3.org/2000/svg"><path fill-rule="evenodd" clip-rule="evenodd" d="M20.03 13.303a20.833 20.833 0 006.698 6.635L14.189 32.477c-.425.425-.637.638-.898.777-.261.14-.556.199-1.146.317l-6.41 1.282c-.332.066-.499.1-.593.005-.095-.095-.062-.261.005-.593l1.282-6.411c.118-.59.177-.884.316-1.145.14-.26.352-.474.777-.9L20.03 13.304zm8.303-7.475c.828 0 1.495.667 2.828 2l1.01 1.01c1.333 1.333 2 2 2 2.828 0 .829-.667 1.496-2 2.83l-3.985 3.984a18.83 18.83 0 01-6.703-6.631l4.022-4.02c1.333-1.334 2-2 2.828-2z" fill="#72C073"/></svg>